<svg version="1.1" viewBox="0.0 0.0 478.0 371.0" fill="none" stroke="none" stroke-linecap="square" stroke-miterlimit="10" width="478" height="371" xmlns:xlink="http://www.w3.org/1999/xlink" xmlns="http://www.w3.org/2000/svg"><path fill="#ffffff" d="M0 0L478.0 0L478.0 371.0L0 371.0L0 0Z" fill-rule="nonzero"/><path fill="#ffffff" fill-opacity="0.0" d="M0 0L478.0 0L478.0 371.0L0 371.0L0 0Z" fill-rule="nonzero"/><path fill="#615a93" d="M387.76666 214.84084C387.76666 272.3539 321.16156 318.9775 239.0 318.9775C156.83844 318.9775 90.23333 272.3539 90.23333 214.84084L90.23333 192.52583C90.23333 250.03893 156.83844 296.6625 239.0 296.6625C321.16156 296.6625 387.76666 250.03893 387.76666 192.52583Z" fill-rule="nonzero"/><path fill="#615a93" d="M239.0 140.4575C280.08078 140.4575 313.38333 163.76929 313.38333 192.52583L313.38333 214.84084C313.38333 186.08429 280.08078 162.7725 239.0 162.7725Z" fill-rule="nonzero"/><path fill="#615a93" d="M164.61667 192.52583C164.61667 168.37157 188.34753 147.3887 221.93304 141.8466L221.93304 164.1616C188.34753 169.7037 164.61667 190.68657 164.61667 214.84084Z" fill-rule="nonzero"/><path fill="#976f28" d="M221.93304 141.8466C227.52628 140.92365 233.25346 140.4575 239.0 140.4575L239.0 162.7725C233.25346 162.7725 227.52628 163.23865 221.93304 164.1616Z" fill-rule="nonzero"/><path fill="#8b81d2" d="M239.0 88.38917C317.81888 88.38917 382.9583 131.42123 387.51758 186.50208C392.07684 241.5829 334.47336 289.59332 256.18195 295.9656C177.89052 302.3379 106.08696 264.86014 92.4702 210.5165C78.85344 156.17288 128.15 103.82665 204.8661 91.16739L221.93304 141.8466C183.575 148.17624 158.92671 174.34935 165.7351 201.52116C172.54349 228.69298 208.44525 247.43187 247.59097 244.24573C286.73666 241.05959 315.53842 217.05437 313.2588 189.51395C310.97916 161.97354 278.40942 140.4575 239.0 140.4575Z" fill-rule="nonzero"/><path fill="#d89f39" d="M204.8661 91.16739C216.05255 89.32146 227.50693 88.38917 239.0 88.38917L239.0 140.4575C233.25346 140.4575 227.52628 140.92365 221.93304 141.8466Z" fill-rule="nonzero"/><path fill="#000000" d="M24.3625 85.82054L20.659374 85.82054L20.659374 88.83617L24.95625 88.83617L24.95625 89.75804L19.534374 89.75804L19.534374 81.22679L24.909374 81.22679L24.909374 82.14867L20.659374 82.14867L20.659374 84.89867L24.3625 84.89867L24.3625 85.82054ZM27.55 89.75804L26.471874 89.75804L26.471874 80.75804L27.55 80.75804L27.55 89.75804ZM30.55 89.75804L29.471874 89.75804L29.471874 83.41429L30.55 83.41429L30.55 89.75804ZM29.378124 81.74242Q29.378124 81.47679 29.534374 81.28929Q29.70625 81.10179 30.01875 81.10179Q30.33125 81.10179 30.4875 81.28929Q30.659374 81.47679 30.659374 81.74242Q30.659374 81.99242 30.4875 82.17992Q30.33125 82.35179 30.01875 82.35179Q29.70625 82.35179 29.534374 82.17992Q29.378124 81.99242 29.378124 81.74242ZM33.846874 81.88304L33.846874 83.41429L35.01875 83.41429L35.01875 84.25804L33.846874 84.25804L33.846874 88.17992Q33.846874 88.57054 34.003124 88.75804Q34.159374 88.94554 34.534374 88.94554Q34.721874 88.94554 35.05 88.88304L35.05 89.75804Q34.628124 89.88304 34.221874 89.88304Q33.503124 89.88304 33.128124 89.44554Q32.753124 88.99242 32.753124 88.17992L32.753124 84.25804L31.596874 84.25804L31.596874 83.41429L32.753124 83.41429L32.753124 81.88304L33.846874 81.88304ZM39.003124 89.88304Q37.70625 89.88304 36.89375 89.03929Q36.096874 88.17992 36.096874 86.75804L36.096874 86.57054Q36.096874 85.61742 36.45625 84.88304Q36.815624 84.13304 37.45625 83.72679Q38.1125 83.30492 38.8625 83.30492Q40.096874 83.30492 40.784374 84.11742Q41.471874 84.92992 41.471874 86.44554L41.471874 86.89867L37.175 86.89867Q37.20625 87.83617 37.721874 88.41429Q38.253124 88.99242 39.065624 88.99242Q39.628124 88.99242 40.01875 88.75804Q40.425 88.52367 40.7375 88.13304L41.39375 88.64867Q40.596874 89.88304 39.003124 89.88304ZM38.8625 84.19554Q38.20625 84.19554 37.753124 84.67992Q37.315624 85.14867 37.221874 86.00804L40.39375 86.00804L40.39375 85.92992Q40.346874 85.10179 39.940624 84.64867Q39.55 84.19554 38.8625 84.19554Z" fill-rule="nonzero"/><path fill="#9e9e9e" d="M20.83125 102.96117L21.64375 102.96117Q22.425 102.94554 22.8625 102.55492Q23.3 102.16429 23.3 101.49242Q23.3 99.99242 21.8 99.99242Q21.096874 99.99242 20.675 100.39867Q20.26875 100.80492 20.26875 101.46117L19.175 101.46117Q19.175 100.44554 19.909374 99.77367Q20.659374 99.10179 21.8 99.10179Q23.003124 99.10179 23.690624 99.74242Q24.378124 100.38304 24.378124 101.52367Q24.378124 102.08617 24.01875 102.60179Q23.659374 103.11742 23.034374 103.38304Q23.7375 103.60179 24.1125 104.11742Q24.503124 104.63304 24.503124 105.38304Q24.503124 106.52367 23.753124 107.21117Q23.003124 107.88304 21.8 107.88304Q20.6125 107.88304 19.846874 107.22679Q19.096874 106.57054 19.096874 105.50804L20.190624 105.50804Q20.190624 106.17992 20.628124 106.58617Q21.065624 106.99242 21.815624 106.99242Q22.596874 106.99242 23.003124 106.58617Q23.425 106.16429 23.425 105.39867Q23.425 104.66429 22.971874 104.27367Q22.51875 103.86742 21.64375 103.85179L20.83125 103.85179L20.83125 102.96117ZM26.39375 107.19554Q26.39375 106.91429 26.55 106.72679Q26.721874 106.53929 27.05 106.53929Q27.39375 106.53929 27.565624 106.72679Q27.7375 106.91429 27.7375 107.19554Q27.7375 107.46117 27.565624 107.64867Q27.39375 107.82054 27.05 107.82054Q26.721874 107.82054 26.55 107.64867Q26.39375 107.46117 26.39375 107.19554ZM34.76875 99.83617L31.2375 107.75804L30.096874 107.75804L33.6125 100.11742L29.003124 100.11742L29.003124 99.22679L34.76875 99.22679L34.76875 99.83617ZM36.159374 100.86742Q36.159374 100.10179 36.64375 99.60179Q37.14375 99.10179 37.909374 99.10179Q38.690624 99.10179 39.175 99.60179Q39.659374 100.10179 39.659374 100.89867L39.659374 101.32054Q39.659374 102.08617 39.159374 102.58617Q38.675 103.07054 37.925 103.07054Q37.159374 103.07054 36.659374 102.58617Q36.159374 102.08617 36.159374 101.27367L36.159374 100.86742ZM36.971874 101.32054Q36.971874 101.77367 37.221874 102.07054Q37.4875 102.36742 37.925 102.36742Q38.346874 102.36742 38.596874 102.08617Q38.846874 101.78929 38.846874 101.28929L38.846874 100.86742Q38.846874 100.41429 38.596874 100.11742Q38.346874 99.80492 37.909374 99.80492Q37.471874 99.80492 37.221874 100.11742Q36.971874 100.41429 36.971874 100.88304L36.971874 101.32054ZM40.315624 105.66429Q40.315624 104.89867 40.8 104.41429Q41.3 103.91429 42.065624 103.91429Q42.83125 103.91429 43.315624 104.41429Q43.815624 104.89867 43.815624 105.71117L43.815624 106.11742Q43.815624 106.88304 43.33125 107.38304Q42.846874 107.88304 42.08125 107.88304Q41.315624 107.88304 40.815624 107.39867Q40.315624 106.89867 40.315624 106.08617L40.315624 105.66429ZM41.128124 106.11742Q41.128124 106.58617 41.378124 106.88304Q41.64375 107.17992 42.08125 107.17992Q42.503124 107.17992 42.753124 106.89867Q43.003124 106.60179 43.003124 106.10179L43.003124 105.66429Q43.003124 105.19554 42.7375 104.91429Q42.4875 104.61742 42.065624 104.61742Q41.64375 104.61742 41.378124 104.91429Q41.128124 105.19554 41.128124 105.69554L41.128124 106.11742ZM38.175 107.11742L37.55 106.72679L41.721874 100.05492L42.33125 100.44554L38.175 107.11742Z" fill-rule="nonzero"/><path stroke="#757575" stroke-width="1.0" stroke-linecap="butt" d="M18.55 94.25804L84.23333 94.25804L222.67717 94.25804" fill-rule="nonzero"/><path fill="#9e9e9e" d="M224.67717 94.25804C224.67717 93.15347 223.78174 92.25804 222.67717 92.25804C221.5726 92.25804 220.67717 93.15347 220.67717 94.25804C220.67717 95.36261 221.5726 96.25804 222.67717 96.25804C223.78174 96.25804 224.67717 95.36261 224.67717 94.25804" fill-rule="nonzero"/><path fill="#000000" d="M417.9969 286.2936L416.8719 286.2936L412.575 279.71548L412.575 286.2936L411.4344 286.2936L411.4344 277.76236L412.575 277.76236L416.8719 284.37173L416.8719 277.76236L417.9969 277.76236L417.9969 286.2936ZM419.98126 283.05923Q419.98126 282.13736 420.34064 281.38736Q420.71564 280.63736 421.3719 280.24673Q422.02814 279.84048 422.85626 279.84048Q424.15314 279.84048 424.95 280.7311Q425.7625 281.62173 425.7625 283.12173L425.7625 283.19986Q425.7625 284.12173 425.40314 284.8561Q425.04376 285.59048 424.3875 286.01236Q423.73126 286.4186 422.8719 286.4186Q421.59064 286.4186 420.77814 285.52798Q419.98126 284.62173 419.98126 283.13736L419.98126 283.05923ZM421.075 283.19986Q421.075 284.24673 421.5594 284.88736Q422.0594 285.52798 422.8719 285.52798Q423.7 285.52798 424.1844 284.88736Q424.66876 284.2311 424.66876 283.05923Q424.66876 282.02798 424.16876 281.38736Q423.6844 280.7311 422.85626 280.7311Q422.0594 280.7311 421.5594 281.37173Q421.075 281.99673 421.075 283.19986ZM428.29376 279.94986L428.325 280.74673Q429.0594 279.84048 430.23126 279.84048Q432.2469 279.84048 432.2625 282.1061L432.2625 286.2936L431.16876 286.2936L431.16876 282.09048Q431.16876 281.4186 430.85626 281.09048Q430.5594 280.76236 429.90314 280.76236Q429.3719 280.76236 428.96564 281.0436Q428.575 281.32486 428.35626 281.77798L428.35626 286.2936L427.27814 286.2936L427.27814 279.94986L428.29376 279.94986ZM436.52814 283.1061L433.66876 283.1061L433.66876 282.2311L436.52814 282.2311L436.52814 283.1061ZM442.2625 282.3561L438.5594 282.3561L438.5594 285.37173L442.85626 285.37173L442.85626 286.2936L437.4344 286.2936L437.4344 277.76236L442.8094 277.76236L442.8094 278.68423L438.5594 278.68423L438.5594 281.43423L442.2625 281.43423L442.2625 282.3561ZM445.45 286.2936L444.3719 286.2936L444.3719 277.2936L445.45 277.2936L445.45 286.2936ZM448.45 286.2936L447.3719 286.2936L447.3719 279.94986L448.45 279.94986L448.45 286.2936ZM447.27814 278.27798Q447.27814 278.01236 447.4344 277.82486Q447.60626 277.63736 447.91876 277.63736Q448.23126 277.63736 448.3875 277.82486Q448.5594 278.01236 448.5594 278.27798Q448.5594 278.52798 448.3875 278.71548Q448.23126 278.88736 447.91876 278.88736Q447.60626 278.88736 447.4344 278.71548Q447.27814 278.52798 447.27814 278.27798ZM451.7469 278.4186L451.7469 279.94986L452.91876 279.94986L452.91876 280.7936L451.7469 280.7936L451.7469 284.71548Q451.7469 285.1061 451.90314 285.2936Q452.0594 285.4811 452.4344 285.4811Q452.6219 285.4811 452.95 285.4186L452.95 286.2936Q452.52814 286.4186 452.1219 286.4186Q451.40314 286.4186 451.02814 285.9811Q450.65314 285.52798 450.65314 284.71548L450.65314 280.7936L449.4969 280.7936L449.4969 279.94986L450.65314 279.94986L450.65314 278.4186L451.7469 278.4186ZM456.90314 286.4186Q455.60626 286.4186 454.79376 285.57486Q453.9969 284.71548 453.9969 283.2936L453.9969 283.1061Q453.9969 282.15298 454.35626 281.4186Q454.71564 280.6686 455.35626 280.26236Q456.0125 279.84048 456.7625 279.84048Q457.9969 279.84048 458.6844 280.65298Q459.3719 281.46548 459.3719 282.9811L459.3719 283.43423L455.075 283.43423Q455.10626 284.37173 455.6219 284.94986Q456.15314 285.52798 456.96564 285.52798Q457.52814 285.52798 457.91876 285.2936Q458.325 285.05923 458.6375 284.6686L459.29376 285.18423Q458.4969 286.4186 456.90314 286.4186ZM456.7625 280.7311Q456.10626 280.7311 455.65314 281.21548Q455.21564 281.68423 455.1219 282.5436L458.29376 282.5436L458.29376 282.46548Q458.2469 281.63736 457.84064 281.18423Q457.45 280.7311 456.7625 280.7311Z" fill-rule="nonzero"/><path fill="#9e9e9e" d="M431.3094 300.5436Q430.98126 300.94986 430.4969 301.19986Q430.02814 301.43423 429.46564 301.43423Q428.73126 301.43423 428.1844 301.07486Q427.6375 300.71548 427.34064 300.05923Q427.04376 299.38736 427.04376 298.59048Q427.04376 297.74673 427.35626 297.05923Q427.6844 296.37173 428.27814 296.01236Q428.8875 295.63736 429.6844 295.63736Q430.95 295.63736 431.66876 296.59048Q432.40314 297.5436 432.40314 299.1686L432.40314 299.4811Q432.40314 301.9811 431.41876 303.12173Q430.4344 304.26236 428.45 304.2936L428.23126 304.2936L428.23126 303.38736L428.46564 303.38736Q429.8094 303.3561 430.52814 302.68423Q431.2469 302.01236 431.3094 300.5436ZM429.6375 300.5436Q430.1844 300.5436 430.6375 300.21548Q431.10626 299.87173 431.325 299.38736L431.325 298.94986Q431.325 297.88736 430.85626 297.21548Q430.3875 296.5436 429.6844 296.5436Q428.96564 296.5436 428.52814 297.09048Q428.10626 297.63736 428.10626 298.5436Q428.10626 299.4186 428.5125 299.9811Q428.9344 300.5436 429.6375 300.5436ZM438.41876 295.76236L438.41876 296.6686L438.21564 296.6686Q436.95 296.69986 436.2 297.43423Q435.45 298.15298 435.325 299.46548Q436.0125 298.69986 437.16876 298.69986Q438.27814 298.69986 438.95 299.4811Q439.6219 300.26236 439.6219 301.51236Q439.6219 302.82486 438.90314 303.62173Q438.1844 304.4186 436.96564 304.4186Q435.7469 304.4186 434.98126 303.4811Q434.23126 302.52798 434.23126 301.0436L434.23126 300.63736Q434.23126 298.27798 435.23126 297.02798Q436.23126 295.77798 438.21564 295.76236L438.41876 295.76236ZM436.9969 299.6061Q436.4344 299.6061 435.96564 299.93423Q435.4969 300.26236 435.3094 300.77798L435.3094 301.1686Q435.3094 302.2311 435.77814 302.87173Q436.2625 303.51236 436.96564 303.51236Q437.7 303.51236 438.1219 302.9811Q438.54376 302.43423 438.54376 301.55923Q438.54376 300.68423 438.1219 300.15298Q437.7 299.6061 436.9969 299.6061ZM441.29376 303.7311Q441.29376 303.44986 441.45 303.26236Q441.6219 303.07486 441.95 303.07486Q442.29376 303.07486 442.46564 303.26236Q442.6375 303.44986 442.6375 303.7311Q442.6375 303.99673 442.46564 304.18423Q442.29376 304.3561 441.95 304.3561Q441.6219 304.3561 441.45 304.18423Q441.29376 303.99673 441.29376 303.7311ZM445.73126 299.49673L446.54376 299.49673Q447.325 299.4811 447.7625 299.09048Q448.2 298.69986 448.2 298.02798Q448.2 296.52798 446.7 296.52798Q445.9969 296.52798 445.575 296.93423Q445.16876 297.34048 445.16876 297.99673L444.075 297.99673Q444.075 296.9811 444.8094 296.30923Q445.5594 295.63736 446.7 295.63736Q447.90314 295.63736 448.59064 296.27798Q449.27814 296.9186 449.27814 298.05923Q449.27814 298.62173 448.91876 299.13736Q448.5594 299.65298 447.9344 299.9186Q448.6375 300.13736 449.0125 300.65298Q449.40314 301.1686 449.40314 301.9186Q449.40314 303.05923 448.65314 303.74673Q447.90314 304.4186 446.7 304.4186Q445.5125 304.4186 444.7469 303.76236Q443.9969 303.1061 443.9969 302.0436L445.09064 302.0436Q445.09064 302.71548 445.52814 303.12173Q445.96564 303.52798 446.71564 303.52798Q447.4969 303.52798 447.90314 303.12173Q448.325 302.69986 448.325 301.93423Q448.325 301.19986 447.8719 300.80923Q447.41876 300.40298 446.54376 300.38736L445.73126 300.38736L445.73126 299.49673ZM451.0594 297.40298Q451.0594 296.63736 451.54376 296.13736Q452.04376 295.63736 452.8094 295.63736Q453.59064 295.63736 454.075 296.13736Q454.5594 296.63736 454.5594 297.43423L454.5594 297.8561Q454.5594 298.62173 454.0594 299.12173Q453.575 299.6061 452.825 299.6061Q452.0594 299.6061 451.5594 299.12173Q451.0594 298.62173 451.0594 297.80923L451.0594 297.40298ZM451.8719 297.8561Q451.8719 298.30923 452.1219 298.6061Q452.3875 298.90298 452.825 298.90298Q453.2469 298.90298 453.4969 298.62173Q453.7469 298.32486 453.7469 297.82486L453.7469 297.40298Q453.7469 296.94986 453.4969 296.65298Q453.2469 296.34048 452.8094 296.34048Q452.3719 296.34048 452.1219 296.65298Q451.8719 296.94986 451.8719 297.4186L451.8719 297.8561ZM455.21564 302.19986Q455.21564 301.43423 455.7 300.94986Q456.2 300.44986 456.96564 300.44986Q457.73126 300.44986 458.21564 300.94986Q458.71564 301.43423 458.71564 302.24673L458.71564 302.65298Q458.71564 303.4186 458.23126 303.9186Q457.7469 304.4186 456.98126 304.4186Q456.21564 304.4186 455.71564 303.93423Q455.21564 303.43423 455.21564 302.62173L455.21564 302.19986ZM456.02814 302.65298Q456.02814 303.12173 456.27814 303.4186Q456.54376 303.71548 456.98126 303.71548Q457.40314 303.71548 457.65314 303.43423Q457.90314 303.13736 457.90314 302.63736L457.90314 302.19986Q457.90314 301.7311 457.6375 301.44986Q457.3875 301.15298 456.96564 301.15298Q456.54376 301.15298 456.27814 301.44986Q456.02814 301.7311 456.02814 302.2311L456.02814 302.65298ZM453.075 303.65298L452.45 303.26236L456.6219 296.59048L457.23126 296.9811L453.075 303.65298Z" fill-rule="nonzero"/><path stroke="#757575" stroke-width="1.0" stroke-linecap="butt" d="M459.45 290.7936L393.76666 290.7936L255.32283 290.7936" fill-rule="nonzero"/><path fill="#9e9e9e" d="M257.32285 290.7936C257.32285 289.68906 256.4274 288.7936 255.32283 288.7936C254.21826 288.7936 253.32283 289.68906 253.32283 290.7936C253.32283 291.8982 254.21826 292.7936 255.32283 292.7936C256.4274 292.7936 257.32285 291.8982 257.32285 290.7936" fill-rule="nonzero"/><path fill="#000000" d="M30.01875 24.878124L25.45625 24.878124L25.45625 37.55L23.596874 37.55L23.596874 24.878124L19.034374 24.878124L19.034374 23.33125L30.01875 23.33125L30.01875 24.878124ZM31.440624 32.175Q31.440624 30.6125 32.05 29.378124Q32.659374 28.128124 33.7375 27.45625Q34.83125 26.784374 36.2375 26.784374Q38.39375 26.784374 39.721874 28.284374Q41.065624 29.76875 41.065624 32.253124L41.065624 32.378124Q41.065624 33.925 40.471874 35.159374Q39.878124 36.378124 38.76875 37.065624Q37.675 37.753124 36.253124 37.753124Q34.1125 37.753124 32.76875 36.253124Q31.440624 34.753124 31.440624 32.3L31.440624 32.175ZM33.253124 32.378124Q33.253124 34.14375 34.065624 35.20625Q34.89375 36.26875 36.253124 36.26875Q37.628124 36.26875 38.440624 35.190624Q39.253124 34.1125 39.253124 32.175Q39.253124 30.425 38.425 29.346874Q37.596874 28.26875 36.2375 28.26875Q34.89375 28.26875 34.065624 29.33125Q33.253124 30.39375 33.253124 32.378124ZM45.3625 24.425L45.3625 26.9875L47.346874 26.9875L47.346874 28.378124L45.3625 28.378124L45.3625 34.925Q45.3625 35.565624 45.628124 35.89375Q45.89375 36.20625 46.534374 36.20625Q46.846874 36.20625 47.39375 36.08125L47.39375 37.55Q46.675 37.753124 46.003124 37.753124Q44.8 37.753124 44.175 37.01875Q43.565624 36.284374 43.565624 34.925L43.565624 28.378124L41.64375 28.378124L41.64375 26.9875L43.565624 26.9875L43.565624 24.425L45.3625 24.425ZM56.440624 37.55Q56.284374 37.2375 56.190624 36.440624Q54.925 37.753124 53.175 37.753124Q51.6125 37.753124 50.6125 36.8625Q49.6125 35.971874 49.6125 34.6125Q49.6125 32.971874 50.8625 32.065624Q52.128124 31.14375 54.39375 31.14375L56.159374 31.14375L56.159374 30.315624Q56.159374 29.3625 55.58125 28.8Q55.01875 28.2375 53.925 28.2375Q52.95625 28.2375 52.3 28.7375Q51.64375 29.221874 51.64375 29.909374L49.83125 29.909374Q49.83125 29.128124 50.39375 28.39375Q50.95625 27.64375 51.909374 27.221874Q52.878124 26.784374 54.034374 26.784374Q55.8625 26.784374 56.89375 27.70625Q57.925 28.6125 57.971874 30.221874L57.971874 35.08125Q57.971874 36.534374 58.33125 37.39375L58.33125 37.55L56.440624 37.55ZM53.440624 36.175Q54.3 36.175 55.05 35.7375Q55.815624 35.3 56.159374 34.596874L56.159374 32.425L54.7375 32.425Q51.425 32.425 51.425 34.3625Q51.425 35.221874 51.9875 35.70625Q52.55 36.175 53.440624 36.175ZM62.878124 37.55L61.08125 37.55L61.08125 22.55L62.878124 22.55L62.878124 37.55ZM75.53438 30.471874L79.25313 23.33125L81.37813 23.33125L76.47188 32.253124L76.47188 37.55L74.59688 37.55L74.59688 32.253124L69.69063 23.33125L71.84688 23.33125L75.53438 30.471874ZM87.3 37.753124Q85.15938 37.753124 83.8 36.346874Q82.45625 34.925 82.45625 32.565624L82.45625 32.221874Q82.45625 30.659374 83.05 29.425Q83.65938 28.190624 84.7375 27.4875Q85.81563 26.784374 87.08125 26.784374Q89.14375 26.784374 90.28438 28.14375Q91.425 29.503124 91.425 32.034374L91.425 32.784374L84.26875 32.784374Q84.3 34.346874 85.175 35.315624Q86.05 36.26875 87.39375 36.26875Q88.3625 36.26875 89.01875 35.878124Q89.69063 35.4875 90.19063 34.846874L91.28438 35.70625Q89.95625 37.753124 87.3 37.753124ZM87.08125 28.26875Q85.9875 28.26875 85.2375 29.065624Q84.50313 29.8625 84.33125 31.3L89.6125 31.3L89.6125 31.159374Q89.53438 29.784374 88.8625 29.034374Q88.20625 28.26875 87.08125 28.26875ZM95.87813 37.55L94.08125 37.55L94.08125 22.55L95.87813 22.55L95.87813 37.55ZM107.84688 32.378124Q107.84688 34.8 106.7375 36.284374Q105.64375 37.753124 103.75313 37.753124Q101.83125 37.753124 100.72188 36.51875L100.72188 41.6125L98.925 41.6125L98.925 26.9875L100.56563 26.9875L100.65938 28.159374Q101.75313 26.784374 103.72188 26.784374Q105.62813 26.784374 106.7375 28.221874Q107.84688 29.659374 107.84688 32.221874L107.84688 32.378124ZM106.03438 32.175Q106.03438 30.39375 105.26875 29.3625Q104.51875 28.315624 103.19063 28.315624Q101.55 28.315624 100.72188 29.76875L100.72188 34.83125Q101.53438 36.26875 103.20625 36.26875Q104.50313 36.26875 105.26875 35.2375Q106.03438 34.20625 106.03438 32.175ZM125.20625 23.33125L125.20625 33.003124Q125.20625 35.003124 123.94063 36.284374Q122.69063 37.565624 120.55 37.721874L120.05 37.753124Q117.70625 37.753124 116.31563 36.4875Q114.94063 35.221874 114.925 33.01875L114.925 23.33125L116.76875 23.33125L116.76875 32.95625Q116.76875 34.503124 117.6125 35.3625Q118.47188 36.20625 120.05 36.20625Q121.64375 36.20625 122.4875 35.3625Q123.33125 34.51875 123.33125 32.971874L123.33125 23.33125L125.20625 23.33125ZM134.06563 34.753124Q134.06563 34.01875 133.51875 33.6125Q132.97188 33.20625 131.59688 32.909374Q130.22188 32.6125 129.40938 32.20625Q128.6125 31.8 128.22188 31.2375Q127.84688 30.659374 127.84688 29.878124Q127.84688 28.58125 128.94063 27.690624Q130.03438 26.784374 131.75313 26.784374Q133.55 26.784374 134.65938 27.721874Q135.78438 28.64375 135.78438 30.08125L133.95625 30.08125Q133.95625 29.346874 133.33125 28.815624Q132.70625 28.26875 131.75313 28.26875Q130.75313 28.26875 130.19063 28.70625Q129.64375 29.128124 129.64375 29.83125Q129.64375 30.471874 130.15938 30.815624Q130.675 31.14375 132.03438 31.45625Q133.39375 31.753124 134.22188 32.175Q135.06563 32.58125 135.47188 33.175Q135.87813 33.76875 135.87813 34.6125Q135.87813 36.034374 134.7375 36.89375Q133.6125 37.753124 131.8 37.753124Q130.53438 37.753124 129.55 37.3Q128.58125 36.846874 128.01875 36.05Q127.47188 35.2375 127.47188 34.3L129.28438 34.3Q129.33125 35.20625 130.00313 35.7375Q130.69063 36.26875 131.8 36.26875Q132.83125 36.26875 133.44063 35.8625Q134.06563 35.440624 134.06563 34.753124ZM142.3 37.753124Q140.15938 37.753124 138.8 36.346874Q137.45625 34.925 137.45625 32.565624L137.45625 32.221874Q137.45625 30.659374 138.05 29.425Q138.65938 28.190624 139.7375 27.4875Q140.81563 26.784374 142.08125 26.784374Q144.14375 26.784374 145.28438 28.14375Q146.425 29.503124 146.425 32.034374L146.425 32.784374L139.26875 32.784374Q139.3 34.346874 140.175 35.315624Q141.05 36.26875 142.39375 36.26875Q143.3625 36.26875 144.01875 35.878124Q144.69063 35.4875 145.19063 34.846874L146.28438 35.70625Q144.95625 37.753124 142.3 37.753124ZM142.08125 28.26875Q140.9875 28.26875 140.2375 29.065624Q139.50313 29.8625 139.33125 31.3L144.6125 31.3L144.6125 31.159374Q144.53438 29.784374 143.8625 29.034374Q143.20625 28.26875 142.08125 28.26875ZM154.01875 28.596874Q153.6125 28.534374 153.14375 28.534374Q151.3625 28.534374 150.72188 30.05L150.72188 37.55L148.925 37.55L148.925 26.9875L150.675 26.9875L150.70625 28.20625Q151.59688 26.784374 153.22188 26.784374Q153.75313 26.784374 154.01875 26.925L154.01875 28.596874ZM162.06563 34.753124Q162.06563 34.01875 161.51875 33.6125Q160.97188 33.20625 159.59688 32.909374Q158.22188 32.6125 157.40938 32.20625Q156.6125 31.8 156.22188 31.2375Q155.84688 30.659374 155.84688 29.878124Q155.84688 28.58125 156.94063 27.690624Q158.03438 26.784374 159.75313 26.784374Q161.55 26.784374 162.65938 27.721874Q163.78438 28.64375 163.78438 30.08125L161.95625 30.08125Q161.95625 29.346874 161.33125 28.815624Q160.70625 28.26875 159.75313 28.26875Q158.75313 28.26875 158.19063 28.70625Q157.64375 29.128124 157.64375 29.83125Q157.64375 30.471874 158.15938 30.815624Q158.675 31.14375 160.03438 31.45625Q161.39375 31.753124 162.22188 32.175Q163.06563 32.58125 163.47188 33.175Q163.87813 33.76875 163.87813 34.6125Q163.87813 36.034374 162.7375 36.89375Q161.6125 37.753124 159.8 37.753124Q158.53438 37.753124 157.55 37.3Q156.58125 36.846874 156.01875 36.05Q155.47188 35.2375 155.47188 34.3L157.28438 34.3Q157.33125 35.20625 158.00313 35.7375Q158.69063 36.26875 159.8 36.26875Q160.83125 36.26875 161.44063 35.8625Q162.06563 35.440624 162.06563 34.753124ZM181.87813 29.95625Q181.87813 31.503124 180.97188 32.565624Q180.06563 33.628124 178.72188 33.628124Q178.01875 33.628124 177.39375 33.378124Q176.76875 33.1125 175.94063 32.39375Q175.1125 31.659374 174.75313 31.4875Q174.39375 31.315624 173.9875 31.315624Q173.22188 31.315624 172.81563 31.83125Q172.40938 32.346874 172.40938 33.26875L170.83125 33.284374Q170.83125 31.721874 171.72188 30.721874Q172.62813 29.721874 173.9875 29.721874Q174.72188 29.721874 175.40938 30.034374Q176.09688 30.346874 176.95625 31.128124Q177.81563 31.909374 178.44063 32.01875L178.72188 32.034374Q179.45625 32.034374 179.925 31.471874Q180.39375 30.89375 180.39375 29.971874L181.87813 29.95625ZM195.675 37.55L193.84688 37.55L193.84688 25.503124L190.20625 26.846874L190.20625 25.20625L195.39375 23.26875L195.675 23.26875L195.675 37.55ZM200.95625 36.596874Q200.95625 36.128124 201.2375 35.815624Q201.51875 35.503124 202.06563 35.503124Q202.62813 35.503124 202.90938 35.815624Q203.20625 36.128124 203.20625 36.596874Q203.20625 37.05 202.90938 37.3625Q202.62813 37.659374 202.06563 37.659374Q201.51875 37.659374 201.2375 37.3625Q200.95625 37.05 200.95625 36.596874ZM206.56563 30.425L207.28438 23.33125L214.56563 23.33125L214.56563 25.003124L208.81563 25.003124L208.39375 28.878124Q209.44063 28.26875 210.76875 28.26875Q212.70625 28.26875 213.84688 29.55Q214.9875 30.83125 214.9875 33.01875Q214.9875 35.221874 213.8 36.4875Q212.6125 37.753124 210.4875 37.753124Q208.59688 37.753124 207.40938 36.70625Q206.22188 35.659374 206.05 33.815624L207.76875 33.815624Q207.925 35.034374 208.62813 35.659374Q209.33125 36.26875 210.4875 36.26875Q211.75313 36.26875 212.47188 35.409374Q213.19063 34.55 213.19063 33.034374Q213.19063 31.6125 212.40938 30.753124Q211.62813 29.878124 210.34688 29.878124Q209.15938 29.878124 208.4875 30.39375L208.00313 30.784374L206.56563 30.425ZM224.62813 23.33125L229.26875 34.925L233.925 23.33125L236.34688 23.33125L236.34688 37.55L234.47188 37.55L234.47188 32.01875L234.65938 26.034374L229.9875 37.55L228.55 37.55L223.89375 26.065624L224.08125 32.01875L224.08125 37.55L222.20625 37.55L222.20625 23.33125L224.62813 23.33125ZM240.87813 37.55L239.08125 37.55L239.08125 26.9875L240.87813 26.9875L240.87813 37.55ZM238.925 24.175Q238.925 23.7375 239.19063 23.440624Q239.47188 23.128124 239.9875 23.128124Q240.51875 23.128124 240.78438 23.440624Q241.06563 23.7375 241.06563 24.175Q241.06563 24.6125 240.78438 24.909374Q240.51875 25.20625 239.9875 25.20625Q239.47188 25.20625 239.19063 24.909374Q238.925 24.6125 238.925 24.175ZM245.87813 37.55L244.08125 37.55L244.08125 22.55L245.87813 22.55L245.87813 37.55ZM250.87813 37.55L249.08125 37.55L249.08125 22.55L250.87813 22.55L250.87813 37.55ZM255.87813 37.55L254.08125 37.55L254.08125 26.9875L255.87813 26.9875L255.87813 37.55ZM253.925 24.175Q253.925 23.7375 254.19063 23.440624Q254.47188 23.128124 254.9875 23.128124Q255.51875 23.128124 255.78438 23.440624Q256.0656 23.7375 256.0656 24.175Q256.0656 24.6125 255.78438 24.909374Q255.51875 25.20625 254.9875 25.20625Q254.47188 25.20625 254.19063 24.909374Q253.925 24.6125 253.925 24.175ZM258.4406 32.175Q258.4406 30.6125 259.05 29.378124Q259.65936 28.128124 260.7375 27.45625Q261.83124 26.784374 263.2375 26.784374Q265.39374 26.784374 266.72186 28.284374Q268.0656 29.76875 268.0656 32.253124L268.0656 32.378124Q268.0656 33.925 267.47186 35.159374Q266.8781 36.378124 265.76874 37.065624Q264.675 37.753124 263.2531 37.753124Q261.1125 37.753124 259.76874 36.253124Q258.4406 34.753124 258.4406 32.3L258.4406 32.175ZM260.2531 32.378124Q260.2531 34.14375 261.0656 35.20625Q261.89374 36.26875 263.2531 36.26875Q264.6281 36.26875 265.4406 35.190624Q266.2531 34.1125 266.2531 32.175Q266.2531 30.425 265.425 29.346874Q264.59686 28.26875 263.2375 28.26875Q261.89374 28.26875 261.0656 29.33125Q260.2531 30.39375 260.2531 32.378124ZM271.6281 26.9875L271.6906 28.315624Q272.89374 26.784374 274.84686 26.784374Q278.20624 26.784374 278.22186 30.565624L278.22186 37.55L276.425 37.55L276.425 30.55Q276.40936 29.409374 275.89374 28.8625Q275.39374 28.315624 274.3 28.315624Q273.425 28.315624 272.7531 28.784374Q272.09686 29.253124 271.72186 30.01875L271.72186 37.55L269.925 37.55L269.925 26.9875L271.6281 26.9875Z" fill-rule="nonzero"/></svg>